<?xml version="1.0" encoding="utf-8"?>
<svg version="1.1" xmlns:xlink="http://www.w3.org/1999/xlink" width="16px" height="16px" viewBox="1208 395  16 16" xmlns="http://www.w3.org/2000/svg">
  <path d="M 1216 395  C 1220.48 395  1224 398.52  1224 403  C 1224 407.48  1220.48 411  1216 411  C 1211.52 411  1208 407.48  1208 403  C 1208 398.52  1211.52 395  1216 395  Z " fill-rule="nonzero" fill="#ffffff" stroke="none" />
  <path d="M 1216 395.5  C 1220.2 395.5  1223.5 398.8  1223.5 403  C 1223.5 407.2  1220.2 410.5  1216 410.5  C 1211.8 410.5  1208.5 407.2  1208.5 403  C 1208.5 398.8  1211.8 395.5  1216 395.5  Z " stroke-width="1" stroke="#797979" fill="none" />
  <path d="M 1216 407  C 1213.76 407  1212 405.24  1212 403  C 1212 400.76  1213.76 399  1216 399  C 1218.24 399  1220 400.76  1220 403  C 1220 405.24  1218.24 407  1216 407  " fill-rule="nonzero" fill="#797979" stroke="none" />
</svg>